<svg width="37" height="37" viewBox="0 0 37 37" fill="none" xmlns="http://www.w3.org/2000/svg">
<g clip-path="url(#clip0)">
<path d="M32.8698 14.3699C32.8698 25.8764 19.8799 36.533 19.8799 36.533C19.1209 37.1557 17.8787 37.1557 17.1197 36.533C17.1197 36.533 4.12988 25.8764 4.12988 14.3699C4.13003 6.4336 10.5636 0 18.4999 0C26.4361 0 32.8698 6.4336 32.8698 14.3699Z" fill="#EC2929"/>
<path d="M18.5 21.5995C14.5136 21.5995 11.2705 18.3563 11.2705 14.3699C11.2705 10.3836 14.5137 7.14026 18.5 7.14026C22.4864 7.14026 25.7296 10.3835 25.7296 14.3698C25.7296 18.3561 22.4865 21.5995 18.5 21.5995Z" fill="#FFE1D6"/>
</g>
<defs>
<clipPath id="clip0">
<rect width="37" height="37" fill="white"/>
</clipPath>
</defs>
</svg>
